<?xml version="1.0" encoding="UTF-8" standalone="no"?>
<!DOCTYPE svg PUBLIC "-//W3C//DTD SVG 1.1//EN" "http://www.w3.org/Graphics/SVG/1.1/DTD/svg11.dtd">
<svg width="100%" height="100%" viewBox="0 0 128 128" version="1.1" xmlns="http://www.w3.org/2000/svg" xmlns:xlink="http://www.w3.org/1999/xlink" xml:space="preserve" xmlns:serif="http://www.serif.com/" style="fill-rule:evenodd;clip-rule:evenodd;stroke-linejoin:round;stroke-miterlimit:2;">
    <g transform="matrix(1,0,0,1,-24.7612,-27.8061)">
        <g transform="matrix(96,0,0,96,38.9565,126.728)">
            <path d="M0.219,-0L0.024,-0.728L0.187,-0.728L0.271,-0.37C0.278,-0.34 0.284,-0.308 0.29,-0.273C0.295,-0.24 0.301,-0.205 0.307,-0.171C0.312,-0.137 0.318,-0.104 0.323,-0.072L0.296,-0.072C0.302,-0.104 0.308,-0.137 0.314,-0.171C0.32,-0.205 0.326,-0.24 0.332,-0.273C0.338,-0.308 0.345,-0.34 0.353,-0.37L0.441,-0.728L0.596,-0.728L0.685,-0.37C0.692,-0.34 0.699,-0.308 0.705,-0.273C0.711,-0.24 0.717,-0.205 0.723,-0.171C0.729,-0.137 0.735,-0.104 0.741,-0.072L0.714,-0.072C0.719,-0.104 0.725,-0.137 0.73,-0.171C0.736,-0.205 0.741,-0.24 0.747,-0.273C0.753,-0.308 0.76,-0.34 0.766,-0.37L0.851,-0.728L1.014,-0.728L0.818,-0L0.648,-0L0.551,-0.372C0.541,-0.413 0.532,-0.458 0.524,-0.506C0.517,-0.555 0.509,-0.604 0.5,-0.655L0.537,-0.655C0.527,-0.605 0.519,-0.557 0.512,-0.509C0.506,-0.462 0.497,-0.416 0.486,-0.372L0.39,-0L0.219,-0Z" style="fill:rgb(113,75,103);fill-rule:nonzero;"/>
        </g>
    </g>
</svg>
