<?xml version="1.0" encoding="UTF-8" standalone="no"?>
<!DOCTYPE svg PUBLIC "-//W3C//DTD SVG 1.1//EN" "http://www.w3.org/Graphics/SVG/1.1/DTD/svg11.dtd">
<svg width="100%" height="100%" viewBox="0 0 207 128" version="1.1" xmlns="http://www.w3.org/2000/svg" xmlns:xlink="http://www.w3.org/1999/xlink" xml:space="preserve" xmlns:serif="http://www.serif.com/" style="fill-rule:evenodd;clip-rule:evenodd;stroke-linejoin:round;stroke-miterlimit:2;">
    <g transform="matrix(1,0,0,1,0.313285,8.24298e-32)">
        <g transform="matrix(36,0,0,36,9.36347,77.0957)">
            <path d="M0.219,-0L0.024,-0.728L0.187,-0.728L0.271,-0.37C0.278,-0.34 0.284,-0.308 0.29,-0.273C0.295,-0.24 0.301,-0.205 0.307,-0.171C0.312,-0.137 0.318,-0.104 0.323,-0.072L0.296,-0.072C0.302,-0.104 0.308,-0.137 0.314,-0.171C0.32,-0.205 0.326,-0.24 0.332,-0.273C0.338,-0.308 0.345,-0.34 0.353,-0.37L0.441,-0.728L0.596,-0.728L0.685,-0.37C0.692,-0.34 0.699,-0.308 0.705,-0.273C0.711,-0.24 0.717,-0.205 0.723,-0.171C0.729,-0.137 0.735,-0.104 0.741,-0.072L0.714,-0.072C0.719,-0.104 0.725,-0.137 0.73,-0.171C0.736,-0.205 0.741,-0.24 0.747,-0.273C0.753,-0.308 0.76,-0.34 0.766,-0.37L0.851,-0.728L1.014,-0.728L0.818,-0L0.648,-0L0.551,-0.372C0.541,-0.413 0.532,-0.458 0.524,-0.506C0.517,-0.555 0.509,-0.604 0.5,-0.655L0.537,-0.655C0.527,-0.605 0.519,-0.557 0.512,-0.509C0.506,-0.462 0.497,-0.416 0.486,-0.372L0.39,-0L0.219,-0Z" style="fill:rgb(113,75,103);fill-rule:nonzero;"/>
        </g>
        <g transform="matrix(36,0,0,36,44.8889,77.0957)">
            <path d="M0.309,0.011C0.253,0.011 0.205,-0.001 0.165,-0.023C0.125,-0.046 0.094,-0.079 0.072,-0.121C0.05,-0.163 0.04,-0.212 0.04,-0.27C0.04,-0.326 0.05,-0.376 0.072,-0.418C0.093,-0.46 0.124,-0.493 0.163,-0.517C0.202,-0.541 0.249,-0.553 0.302,-0.553C0.338,-0.553 0.371,-0.547 0.402,-0.536C0.433,-0.524 0.46,-0.507 0.483,-0.484C0.507,-0.461 0.525,-0.432 0.538,-0.398C0.551,-0.363 0.558,-0.323 0.558,-0.276L0.558,-0.235L0.1,-0.235L0.1,-0.327L0.486,-0.327L0.418,-0.302C0.418,-0.331 0.414,-0.355 0.405,-0.376C0.396,-0.397 0.383,-0.413 0.366,-0.425C0.349,-0.437 0.328,-0.442 0.303,-0.442C0.278,-0.442 0.256,-0.437 0.238,-0.425C0.221,-0.413 0.207,-0.397 0.198,-0.377C0.189,-0.357 0.185,-0.334 0.185,-0.309L0.185,-0.244C0.185,-0.212 0.19,-0.186 0.2,-0.164C0.211,-0.143 0.226,-0.126 0.245,-0.116C0.264,-0.105 0.286,-0.1 0.312,-0.1C0.329,-0.1 0.344,-0.102 0.358,-0.107C0.372,-0.112 0.384,-0.119 0.394,-0.128C0.404,-0.138 0.412,-0.15 0.417,-0.164L0.55,-0.139C0.541,-0.109 0.526,-0.083 0.504,-0.06C0.482,-0.038 0.455,-0.02 0.422,-0.008C0.389,0.005 0.352,0.011 0.309,0.011Z" style="fill:rgb(113,75,103);fill-rule:nonzero;"/>
        </g>
        <g transform="matrix(36,0,0,36,66.3342,77.0957)">
            <path d="M0.279,0.011C0.235,0.011 0.196,0.005 0.163,-0.008C0.129,-0.021 0.101,-0.039 0.08,-0.063C0.058,-0.087 0.044,-0.116 0.038,-0.149L0.174,-0.173C0.181,-0.147 0.194,-0.128 0.212,-0.116C0.23,-0.103 0.254,-0.097 0.284,-0.097C0.312,-0.097 0.334,-0.102 0.35,-0.112C0.366,-0.123 0.374,-0.137 0.374,-0.153C0.374,-0.167 0.368,-0.179 0.356,-0.188C0.345,-0.197 0.327,-0.204 0.304,-0.209L0.209,-0.229C0.157,-0.239 0.117,-0.257 0.091,-0.283C0.065,-0.309 0.052,-0.343 0.052,-0.383C0.052,-0.418 0.062,-0.449 0.081,-0.474C0.1,-0.499 0.127,-0.519 0.161,-0.532C0.195,-0.546 0.236,-0.553 0.282,-0.553C0.325,-0.553 0.362,-0.547 0.394,-0.535C0.425,-0.523 0.451,-0.506 0.47,-0.484C0.49,-0.463 0.503,-0.437 0.509,-0.407L0.379,-0.384C0.374,-0.403 0.363,-0.418 0.347,-0.43C0.332,-0.442 0.31,-0.448 0.284,-0.448C0.26,-0.448 0.239,-0.443 0.223,-0.433C0.207,-0.423 0.199,-0.409 0.199,-0.392C0.199,-0.378 0.204,-0.367 0.214,-0.357C0.225,-0.348 0.243,-0.341 0.269,-0.335L0.367,-0.316C0.42,-0.305 0.459,-0.288 0.485,-0.263C0.511,-0.239 0.523,-0.208 0.523,-0.168C0.523,-0.133 0.513,-0.101 0.492,-0.074C0.471,-0.048 0.443,-0.027 0.406,-0.012C0.369,0.003 0.327,0.011 0.279,0.011Z" style="fill:rgb(113,75,103);fill-rule:nonzero;"/>
        </g>
        <g transform="matrix(36,0,0,36,86.4963,77.0957)">
            <path d="M0.333,-0.546L0.333,-0.434L0.01,-0.434L0.01,-0.546L0.333,-0.546ZM0.085,-0.676L0.231,-0.676L0.231,-0.16C0.231,-0.142 0.235,-0.13 0.243,-0.121C0.25,-0.113 0.263,-0.109 0.281,-0.109C0.287,-0.109 0.295,-0.11 0.305,-0.111C0.315,-0.112 0.322,-0.114 0.328,-0.115L0.349,-0.005C0.332,-0 0.316,0.003 0.3,0.005C0.284,0.007 0.269,0.008 0.254,0.008C0.199,0.008 0.157,-0.006 0.128,-0.032C0.099,-0.059 0.085,-0.097 0.085,-0.147L0.085,-0.676Z" style="fill:rgb(113,75,103);fill-rule:nonzero;"/>
        </g>
        <g transform="matrix(36,0,0,36,100.207,77.0957)">
            <path d="M0.176,-0L0.015,-0.546L0.169,-0.546L0.216,-0.344C0.224,-0.308 0.233,-0.269 0.243,-0.226C0.252,-0.184 0.261,-0.137 0.269,-0.085L0.252,-0.085C0.26,-0.136 0.27,-0.182 0.28,-0.225C0.29,-0.268 0.299,-0.307 0.308,-0.344L0.358,-0.546L0.493,-0.546L0.542,-0.344C0.55,-0.307 0.559,-0.268 0.569,-0.225C0.579,-0.183 0.588,-0.136 0.597,-0.085L0.581,-0.085C0.588,-0.136 0.597,-0.182 0.605,-0.225C0.615,-0.267 0.623,-0.307 0.632,-0.344L0.679,-0.546L0.835,-0.546L0.673,-0L0.524,-0L0.463,-0.21C0.458,-0.232 0.452,-0.255 0.446,-0.28C0.44,-0.306 0.434,-0.332 0.429,-0.358C0.423,-0.385 0.417,-0.41 0.412,-0.433L0.438,-0.433C0.432,-0.41 0.426,-0.385 0.42,-0.358C0.415,-0.332 0.409,-0.306 0.403,-0.28C0.397,-0.255 0.392,-0.231 0.386,-0.21L0.325,-0L0.176,-0Z" style="fill:rgb(113,75,103);fill-rule:nonzero;"/>
        </g>
        <g transform="matrix(36,0,0,36,130.16,77.0957)">
            <path d="M0.307,0.011C0.252,0.011 0.205,-0.001 0.165,-0.024C0.125,-0.048 0.094,-0.081 0.072,-0.123C0.05,-0.165 0.04,-0.215 0.04,-0.271C0.04,-0.327 0.05,-0.376 0.072,-0.418C0.094,-0.461 0.125,-0.494 0.165,-0.517C0.205,-0.541 0.252,-0.553 0.307,-0.553C0.362,-0.553 0.409,-0.541 0.449,-0.517C0.489,-0.494 0.52,-0.461 0.541,-0.418C0.563,-0.376 0.574,-0.327 0.574,-0.271C0.574,-0.215 0.563,-0.165 0.541,-0.123C0.52,-0.081 0.489,-0.048 0.449,-0.024C0.409,-0.001 0.362,0.011 0.307,0.011ZM0.307,-0.104C0.333,-0.104 0.354,-0.112 0.372,-0.126C0.39,-0.141 0.403,-0.16 0.412,-0.186C0.42,-0.211 0.425,-0.239 0.425,-0.271C0.425,-0.303 0.42,-0.332 0.412,-0.357C0.403,-0.382 0.39,-0.402 0.372,-0.416C0.354,-0.43 0.333,-0.438 0.307,-0.438C0.281,-0.438 0.259,-0.43 0.241,-0.416C0.224,-0.402 0.211,-0.382 0.202,-0.357C0.193,-0.332 0.189,-0.303 0.189,-0.271C0.189,-0.239 0.193,-0.211 0.202,-0.186C0.211,-0.16 0.224,-0.141 0.241,-0.126C0.259,-0.112 0.281,-0.104 0.307,-0.104Z" style="fill:rgb(143,143,143);fill-rule:nonzero;"/>
        </g>
        <g transform="matrix(36,0,0,36,152.238,77.0957)">
            <path d="M0.307,0.011C0.252,0.011 0.205,-0.001 0.165,-0.024C0.125,-0.048 0.094,-0.081 0.072,-0.123C0.05,-0.165 0.04,-0.215 0.04,-0.271C0.04,-0.327 0.05,-0.376 0.072,-0.418C0.094,-0.461 0.125,-0.494 0.165,-0.517C0.205,-0.541 0.252,-0.553 0.307,-0.553C0.362,-0.553 0.409,-0.541 0.449,-0.517C0.489,-0.494 0.52,-0.461 0.541,-0.418C0.563,-0.376 0.574,-0.327 0.574,-0.271C0.574,-0.215 0.563,-0.165 0.541,-0.123C0.52,-0.081 0.489,-0.048 0.449,-0.024C0.409,-0.001 0.362,0.011 0.307,0.011ZM0.307,-0.104C0.333,-0.104 0.354,-0.112 0.372,-0.126C0.39,-0.141 0.403,-0.16 0.412,-0.186C0.42,-0.211 0.425,-0.239 0.425,-0.271C0.425,-0.303 0.42,-0.332 0.412,-0.357C0.403,-0.382 0.39,-0.402 0.372,-0.416C0.354,-0.43 0.333,-0.438 0.307,-0.438C0.281,-0.438 0.259,-0.43 0.241,-0.416C0.224,-0.402 0.211,-0.382 0.202,-0.357C0.193,-0.332 0.189,-0.303 0.189,-0.271C0.189,-0.239 0.193,-0.211 0.202,-0.186C0.211,-0.16 0.224,-0.141 0.241,-0.126C0.259,-0.112 0.281,-0.104 0.307,-0.104Z" style="fill:rgb(143,143,143);fill-rule:nonzero;"/>
        </g>
        <g transform="matrix(36,0,0,36,174.317,77.0957)">
            <path d="M0.262,0.009C0.22,0.009 0.182,-0.001 0.148,-0.023C0.115,-0.045 0.088,-0.076 0.069,-0.118C0.049,-0.16 0.04,-0.211 0.04,-0.272C0.04,-0.334 0.05,-0.386 0.07,-0.428C0.09,-0.469 0.117,-0.501 0.15,-0.521C0.184,-0.542 0.221,-0.553 0.261,-0.553C0.292,-0.553 0.318,-0.548 0.338,-0.537C0.359,-0.527 0.375,-0.514 0.388,-0.499C0.401,-0.483 0.41,-0.468 0.417,-0.454L0.421,-0.454L0.421,-0.728L0.568,-0.728L0.568,-0L0.424,-0L0.424,-0.087L0.417,-0.087C0.41,-0.073 0.4,-0.058 0.387,-0.043C0.375,-0.028 0.358,-0.016 0.337,-0.006C0.317,0.004 0.292,0.009 0.262,0.009ZM0.307,-0.108C0.332,-0.108 0.353,-0.115 0.371,-0.129C0.388,-0.143 0.402,-0.162 0.411,-0.186C0.42,-0.211 0.424,-0.24 0.424,-0.272C0.424,-0.306 0.42,-0.334 0.411,-0.358C0.402,-0.383 0.389,-0.402 0.371,-0.415C0.354,-0.429 0.332,-0.436 0.307,-0.436C0.281,-0.436 0.26,-0.429 0.242,-0.415C0.225,-0.401 0.212,-0.381 0.203,-0.357C0.194,-0.333 0.19,-0.304 0.19,-0.272C0.19,-0.241 0.194,-0.212 0.203,-0.188C0.212,-0.163 0.225,-0.143 0.243,-0.129C0.26,-0.115 0.282,-0.108 0.307,-0.108Z" style="fill:rgb(143,143,143);fill-rule:nonzero;"/>
        </g>
    </g>
</svg>
